<?xml version="1.0" encoding="UTF-8" standalone="no"?>
<!-- Created with Inkscape (http://www.inkscape.org/) -->

<svg
   width="64.000008"
   height="54.391727"
   viewBox="0 0 64.000008 54.391727"
   version="1.1"
   id="svg1"
   xmlns="http://www.w3.org/2000/svg"
   xmlns:svg="http://www.w3.org/2000/svg">
  <defs
     id="defs1" />
  <g
     id="layer1"
     transform="translate(-75.935416,-85.724997)"
     style="fill:#ffffff">
    <path
       id="path5"
       style="baseline-shift:baseline;display:inline;overflow:visible;vector-effect:none;fill:#ffffff;fill-opacity:1;stroke-width:1.75402;stroke-linecap:round;stroke-linejoin:round;enable-background:accumulate;stop-color:#000000"
       d="m 84.817194,85.724997 c -4.893004,0 -8.881778,3.988808 -8.881778,8.881791 v 26.992922 c 0,4.893 3.988774,8.88179 8.881778,8.88179 h 7.09144 l 13.522696,9.19437 c 1.27223,0.86494 2.77406,0.49253 2.77406,-1.43183 v -7.76254 h 22.84824 c 4.893,0 8.88179,-3.98879 8.88179,-8.88179 V 94.606788 c 0,-4.892983 -3.98879,-8.881791 -8.88179,-8.881791 z M 117.10684,97.55135 h 5.42132 a 1.3248828,1.3248831 0 0 1 0.92688,0.37818 l 8.63476,8.4577 c 0.25432,0.24941 0.3981,0.59251 0.39785,0.94872 2.4e-4,0.35618 -0.14353,0.69721 -0.39785,0.94655 l -8.63476,8.45551 a 1.3248828,1.3248831 0 0 1 -0.92688,0.38038 h -5.42132 l 7.97677,-7.86092 H 83.383165 v -3.8452 h 41.700445 z m -33.723675,0.03511 18.108965,0.0022 c 0.57832,2.24e-4 1.13685,0.210876 1.56955,0.594597 l 0.005,0.0022 0.002,0.0022 3.63317,3.244033 H 83.383495 Z m 0,15.65187 h 30.785665 l -3.63534,3.24405 a 2.3667962,2.3667962 0 0 0 -0.002,0.002 l -0.002,0.002 a 2.3667962,2.3667962 0 0 1 -1.56957,0.59459 H 83.383055 Z" />
  </g>
</svg>
